<?xml version="1.0" encoding="utf-8"?>
<!-- Generator: Adobe Illustrator 18.1.1, SVG Export Plug-In . SVG Version: 6.00 Build 0)  -->
<svg version="1.1" id="Layer_1" xmlns="http://www.w3.org/2000/svg" xmlns:xlink="http://www.w3.org/1999/xlink" x="0px" y="0px"
	 viewBox="0 0 227.2 140.9" enable-background="new 0 0 227.2 140.9" xml:space="preserve">
<g>
	
		<text id="XMLID_603_" transform="matrix(1 0 0 1 -1.953125e-003 94.5186)" fill="#FFFFFF" font-family="'Potra'" font-size="111.202">FAIT</text>
	<text id="XMLID_703_" transform="matrix(1 0 0 1 65.8394 134.4308)" fill="#FFFFFF" font-family="'Potra'" font-size="27.1776">WAY UP</text>
	<g id="XMLID_719_">
		<g id="XMLID_716_">
			<path id="XMLID_718_" fill="#FFFFFF" d="M101.1,103.9c0-0.3,0-0.7,0.1-1H35.3c-0.6,0-1,0.4-1,1s0.4,1,1,1h65.8
				C101.1,104.6,101.1,104.3,101.1,103.9z"/>
			<path id="XMLID_720_" fill="#FFFFFF" d="M191.8,102.9H126c0,0.3,0.1,0.7,0.1,1s0,0.7-0.1,1h65.8c0.6,0,1-0.4,1-1
				S192.4,102.9,191.8,102.9z"/>
		</g>
		<circle id="XMLID_717_" fill="#FFFFFF" cx="113.6" cy="103.9" r="1.7"/>
	</g>
</g>
</svg>
