<?xml version="1.0" encoding="utf-8"?>
<!-- Generator: Adobe Illustrator 18.1.1, SVG Export Plug-In . SVG Version: 6.00 Build 0)  -->
<svg version="1.1" id="Layer_1" xmlns="http://www.w3.org/2000/svg" xmlns:xlink="http://www.w3.org/1999/xlink" x="0px" y="0px"
	 viewBox="0 0 227.2 140.9" enable-background="new 0 0 227.2 140.9" xml:space="preserve">
<g enable-background="new    ">
	<path fill="#FFFFFF" d="M7.4,94.4c-1.2,0-1.8-0.6-1.8-1.8V28c0-1.2,0.6-1.8,1.8-1.8h34.9c1.3,0,1.9,0.6,1.9,1.8
		c0,0.5-0.2,1-0.5,1.3c-0.3,0.4-0.8,0.6-1.4,0.6h-33v62.7c0,0.5-0.2,0.9-0.6,1.3C8.3,94.2,7.9,94.4,7.4,94.4z M17.1,20
		c-1.2,0-1.8-0.6-1.8-1.9c0-1.2,0.6-1.8,1.8-1.8h31.4c0.5,0,1,0.2,1.3,0.5c0.4,0.3,0.6,0.8,0.6,1.3c0,0.6-0.2,1.1-0.6,1.4
		C49.4,19.8,49,20,48.5,20H17.1z M17.4,52.3c-1.2,0-1.8-0.6-1.8-1.8v-14c0-0.5,0.2-1,0.5-1.3c0.3-0.4,0.8-0.6,1.3-0.6
		c0.5,0,1,0.2,1.3,0.6c0.4,0.4,0.6,0.8,0.6,1.3v12.1h28.6c0.5,0,0.9,0.2,1.3,0.6c0.3,0.4,0.5,0.8,0.5,1.3c0,1.2-0.6,1.8-1.8,1.8
		H17.4z M15.6,92.6V60.3c0-0.6,0.1-1,0.4-1.3c0.5-0.4,1-0.6,1.3-0.6H43c0.5,0,1,0.2,1.3,0.5c0.4,0.3,0.6,0.8,0.6,1.4
		c0,0.5-0.2,0.9-0.6,1.3C44,61.9,43.6,62,43,62H19.2v30.6c0,0.5-0.2,0.9-0.6,1.3c-0.4,0.3-0.8,0.5-1.3,0.5
		C16.2,94.4,15.6,93.8,15.6,92.6z M49.2,26.1c0.5,0.1,0.9,0.5,1.2,0.9c0.3,0.5,0.3,1,0.1,1.6c-0.2,0.9-0.9,1.3-1.9,1.3
		c-0.8-0.2-1.4-0.6-1.7-1.1c-0.3-0.5-0.4-1-0.2-1.5v-0.1c0.4-0.9,1-1.3,1.9-1.3C48.8,26,49,26.1,49.2,26.1z"/>
	<path fill="#FFFFFF" d="M61.5,94.4c-1.5-0.4-2-1.3-1.7-2.4l27.3-73.5c0.4-0.8,1-1.2,1.8-1.2h1.6c0.8,0,1.4,0.4,1.8,1.2l13.2,40.4
		c0.1,0.5,0.1,1-0.1,1.4c-0.2,0.4-0.6,0.7-1.1,0.9c-0.1,0-0.2,0-0.3,0.1c0,0-0.1,0.1-0.3,0.1c-0.8,0-1.4-0.4-1.8-1.3L89.6,22.3
		L63.3,93.3C62.9,94,62.3,94.4,61.5,94.4z M71.9,94.6c-0.8-0.2-1.4-0.6-1.7-1.1c-0.3-0.5-0.4-1-0.2-1.6c0.4-1,1-1.4,1.9-1.4
		c0.1,0,0.3,0,0.3,0.1c0.1,0,0.2,0.1,0.3,0.1c0.5,0.2,0.9,0.6,1.1,1.1c0.2,0.5,0.3,1,0.1,1.5v0.1C73.5,94.2,72.8,94.6,71.9,94.6z
		 M73.9,88.5c-1.5-0.4-2-1.3-1.7-2.4l15.5-45.6c0.4-0.8,1-1.2,1.8-1.2c0.1,0,0.3,0,0.3,0.1c0.1,0,0.1,0.1,0.2,0.1
		c0.5,0.1,0.9,0.5,1.1,0.9c0.2,0.5,0.3,0.9,0.1,1.4L75.7,87.3C75.4,88.1,74.8,88.5,73.9,88.5z M112.5,88.4c-0.9,0-1.4-0.4-1.7-1.2
		l-2.8-8.3H86c-0.5,0-0.9-0.2-1.3-0.6c-0.3-0.4-0.5-0.8-0.5-1.3c0-1.2,0.6-1.8,1.8-1.8h23.5c0.8,0,1.4,0.4,1.8,1.2l3.1,9.7
		c0.1,0.4,0.1,0.9-0.1,1.3c-0.2,0.4-0.6,0.7-1.1,0.9L112.5,88.4z M124.4,94.4c-0.8,0-1.4-0.4-1.8-1.1L113.7,69H89.1
		c-0.6,0-1.1-0.2-1.4-0.6c-0.3-0.4-0.5-0.8-0.5-1.3c0-1.2,0.6-1.8,1.9-1.8h26c0.7,0,1.3,0.3,1.7,1l9.3,25.6c0.4,1.2,0,2-1.1,2.3
		L124.4,94.4z M112.2,61.1c-0.8,0-1.4-0.4-1.8-1.2L99.3,25.8c-0.4-1.2,0-2,1.1-2.3c0.1-0.1,0.3-0.1,0.6-0.1c0.9,0,1.5,0.4,1.8,1.2
		L114,58.7c0.1,0.5,0.1,1-0.1,1.4c-0.2,0.4-0.6,0.7-1.1,0.9L112.2,61.1z"/>
	<path fill="#FFFFFF" d="M150.5,86.4V57.6h-8.3c-1.2,0-1.8-0.6-1.8-1.8V18.6c0-0.5,0.2-1,0.5-1.3c0.3-0.4,0.8-0.6,1.3-0.6
		c0.5,0,1,0.2,1.3,0.6c0.4,0.4,0.6,0.8,0.6,1.3v35.4h8.2c0.5,0,1,0.2,1.3,0.6c0.4,0.4,0.6,0.8,0.6,1.3v30.6c0,0.5-0.2,0.9-0.6,1.3
		c-0.4,0.3-0.8,0.5-1.3,0.5C151.1,88.2,150.5,87.6,150.5,86.4z M140.5,65.8c0-1.2,0.6-1.8,1.8-1.8c1.3,0,1.9,0.6,1.9,1.8v26.9
		c0,1.2-0.6,1.8-1.9,1.8c-1.2,0-1.8-0.6-1.8-1.8V65.8z M151.7,94.5c-0.5-0.1-0.9-0.5-1.1-1c-0.2-0.5-0.3-1-0.1-1.6v-0.1
		c0.4-0.9,1-1.3,1.9-1.3c0.1,0,0.3,0,0.3,0.1c0.1,0,0.2,0.1,0.3,0.1c0.6,0.1,1,0.5,1.2,1c0.2,0.5,0.2,1,0,1.6v0.1
		c-0.2,0.9-0.9,1.3-1.9,1.3L151.7,94.5z M154.2,45.9c0,0.5-0.2,0.9-0.6,1.3c-0.4,0.3-0.8,0.5-1.3,0.5c-1.2,0-1.8-0.6-1.8-1.8V26.8
		c0-0.5,0.2-1,0.5-1.3c0.3-0.4,0.8-0.6,1.3-0.6c0.5,0,1,0.2,1.3,0.6c0.4,0.4,0.6,0.8,0.6,1.3V45.9z"/>
	<path fill="#FFFFFF" d="M193.5,18.8v35.1h8.3c0.5,0,0.9,0.2,1.3,0.6c0.3,0.4,0.5,0.8,0.5,1.3v28.4c0,1.3-0.6,1.9-1.8,1.9
		c-0.5,0-1-0.2-1.3-0.5c-0.4-0.3-0.6-0.8-0.6-1.4V57.6h-8.2c-0.5,0-1-0.2-1.3-0.5c-0.4-0.3-0.6-0.8-0.6-1.3V20.6h-20.2
		c-1.3,0-1.9-0.6-1.9-1.8c0-1.3,0.6-1.9,1.9-1.9h22.1C192.9,16.9,193.5,17.5,193.5,18.8z M183.1,26.7c0.5,0,0.9,0.2,1.3,0.6
		c0.3,0.4,0.5,0.8,0.5,1.3c0,1.2-0.6,1.8-1.8,1.8h-13.6c-1.3,0-1.9-0.6-1.9-1.8c0-0.5,0.2-1,0.5-1.3c0.3-0.4,0.8-0.6,1.4-0.6H183.1z
		 M193.6,92.7c0,1.2-0.6,1.8-1.8,1.8c-0.5,0-1-0.2-1.3-0.5c-0.4-0.3-0.6-0.8-0.6-1.3V65.9c0-0.6,0.2-1.1,0.6-1.4
		c0.4-0.3,0.8-0.5,1.3-0.5c1.2,0,1.8,0.6,1.8,1.9V92.7z M201.8,16.9h14.5c1.2,0,1.8,0.6,1.8,1.9c0,1.2-0.6,1.8-1.8,1.8h-14.5
		c-0.5,0-1-0.2-1.3-0.5c-0.4-0.3-0.6-0.8-0.6-1.3c0-0.6,0.2-1.1,0.6-1.4C200.8,17.1,201.3,16.9,201.8,16.9z M199.9,45.9V28.6
		c0-0.5,0.2-1,0.6-1.3c0.4-0.4,0.8-0.6,1.3-0.6h20.6c0.6,0,1.1,0.2,1.4,0.6c0.3,0.4,0.5,0.8,0.5,1.3c0,1.2-0.6,1.8-1.9,1.8h-18.8
		v15.6c0,1.2-0.6,1.8-1.8,1.8c-0.5,0-1-0.2-1.3-0.5C200.1,46.9,199.9,46.4,199.9,45.9z M223,16.8c0.6,0.1,1,0.5,1.2,1
		c0.2,0.5,0.3,1,0.1,1.6h-0.1c-0.2,1-0.9,1.4-1.9,1.4c-0.8-0.3-1.4-0.7-1.7-1.2c-0.3-0.5-0.4-1-0.2-1.5l0.1-0.1
		c0.2-0.9,0.9-1.3,1.9-1.3C222.8,16.7,223,16.7,223,16.8z"/>
</g>
<g enable-background="new    ">
	<path fill="#FFFFFF" d="M69.9,134.4c-0.3-0.1-0.4-0.2-0.5-0.4l-2.6-18.1c0-0.1,0-0.2,0.1-0.3s0.2-0.1,0.3-0.2c0.1,0,0.2,0,0.3,0.1
		s0.1,0.2,0.2,0.3l2.4,16.6l7-14.6c0.1-0.2,0.2-0.2,0.4-0.2c0.1,0,0.2,0,0.2,0.1c0.1,0,0.2,0.1,0.2,0.2c0,0.1,0,0.2,0,0.3l-7.6,16
		C70.2,134.3,70.1,134.4,69.9,134.4z M71,125.3c-0.1,0-0.2,0-0.3-0.1c-0.1-0.1-0.1-0.2-0.2-0.3l-1.1-9c0-0.3,0.1-0.5,0.4-0.5
		c0.1,0,0.2,0,0.3,0.1s0.1,0.2,0.2,0.3l1.1,9C71.5,125.1,71.3,125.2,71,125.3L71,125.3z M84.4,134.4c-0.2,0-0.3-0.1-0.4-0.3
		L78.7,122l-5,10.7c-0.1,0.2-0.2,0.3-0.4,0.3c-0.1,0-0.1,0-0.2-0.1c-0.1-0.1-0.2-0.1-0.2-0.3c0-0.1,0-0.2,0-0.3l5.4-11.6
		c0.1-0.2,0.2-0.3,0.4-0.3c0.2,0,0.4,0.1,0.4,0.3l5.1,11.6l2.4-16.5c0-0.1,0.1-0.2,0.2-0.3c0.1-0.1,0.2-0.1,0.3-0.1
		c0.1,0,0.2,0.1,0.3,0.2s0.1,0.2,0.1,0.3L84.9,134C84.8,134.3,84.7,134.4,84.4,134.4L84.4,134.4z M81.1,133c-0.2,0-0.3-0.1-0.4-0.3
		l-2.6-6.4c-0.1-0.1-0.1-0.2,0-0.3s0.1-0.2,0.3-0.2c0.1,0,0.1-0.1,0.2-0.1c0.2,0,0.4,0.1,0.4,0.3l2.7,6.4c0,0.1,0,0.2,0,0.3
		s-0.1,0.2-0.2,0.2L81.1,133z M83,125.5c-0.3-0.1-0.5-0.2-0.4-0.5l1.1-7.6c0-0.3,0.2-0.4,0.4-0.4c0,0,0,0,0.1,0
		c0.1,0,0.2,0.1,0.3,0.2s0.1,0.2,0.1,0.3l-1.1,7.6C83.4,125.3,83.3,125.5,83,125.5z M84.4,116.4c-0.2-0.1-0.3-0.1-0.4-0.3
		c-0.1-0.1-0.1-0.3-0.1-0.4v0c0.1-0.2,0.2-0.3,0.5-0.3c0,0,0.1,0,0.1,0c0,0,0,0,0.1,0c0.1,0,0.2,0.1,0.3,0.2c0.1,0.1,0.1,0.3,0,0.4
		v0C84.8,116.3,84.7,116.4,84.4,116.4z"/>
	<path fill="#FFFFFF" d="M89.8,134.4c-0.4-0.1-0.5-0.3-0.4-0.6l6.7-18c0.1-0.2,0.2-0.3,0.4-0.3h0.4c0.2,0,0.3,0.1,0.4,0.3l3.2,9.9
		c0,0.1,0,0.2,0,0.4c-0.1,0.1-0.1,0.2-0.3,0.2c0,0-0.1,0-0.1,0c0,0,0,0-0.1,0c-0.2,0-0.3-0.1-0.4-0.3l-3-9.2l-6.4,17.3
		C90.1,134.3,90,134.4,89.8,134.4z M92.4,134.4c-0.2-0.1-0.3-0.1-0.4-0.3c-0.1-0.1-0.1-0.2-0.1-0.4c0.1-0.2,0.2-0.4,0.5-0.4
		c0,0,0.1,0,0.1,0c0,0,0,0,0.1,0c0.1,0.1,0.2,0.1,0.3,0.3c0.1,0.1,0.1,0.2,0,0.4v0C92.7,134.3,92.6,134.4,92.4,134.4z M92.8,132.9
		c-0.4-0.1-0.5-0.3-0.4-0.6l3.8-11.1c0.1-0.2,0.3-0.3,0.4-0.3c0,0,0.1,0,0.1,0c0,0,0,0,0.1,0c0.1,0,0.2,0.1,0.3,0.2
		c0.1,0.1,0.1,0.2,0,0.3l-3.8,11.1C93.2,132.8,93,132.9,92.8,132.9z M102.3,132.9c-0.2,0-0.4-0.1-0.4-0.3l-0.7-2h-5.4
		c-0.1,0-0.2,0-0.3-0.1s-0.1-0.2-0.1-0.3c0-0.3,0.1-0.4,0.4-0.4h5.7c0.2,0,0.3,0.1,0.4,0.3l0.8,2.4c0,0.1,0,0.2,0,0.3
		c-0.1,0.1-0.1,0.2-0.3,0.2L102.3,132.9z M105.2,134.4c-0.2,0-0.3-0.1-0.4-0.3l-2.2-5.9h-6c-0.1,0-0.3,0-0.3-0.1
		c-0.1-0.1-0.1-0.2-0.1-0.3c0-0.3,0.2-0.4,0.5-0.4h6.4c0.2,0,0.3,0.1,0.4,0.2l2.3,6.2c0.1,0.3,0,0.5-0.3,0.6L105.2,134.4z
		 M102.2,126.3c-0.2,0-0.3-0.1-0.4-0.3l-2.7-8.3c-0.1-0.3,0-0.5,0.3-0.6c0,0,0.1,0,0.1,0c0.2,0,0.4,0.1,0.4,0.3l2.7,8.3
		c0,0.1,0,0.2,0,0.4c-0.1,0.1-0.1,0.2-0.3,0.2L102.2,126.3z"/>
	<path fill="#FFFFFF" d="M108.4,115.5c0,0,0.1-0.1,0.2-0.1c0.2,0,0.3,0.1,0.4,0.2l5.8,10.8c0,0.1,0.1,0.1,0.1,0.2v7.3
		c0,0.3-0.1,0.4-0.4,0.4c-0.1,0-0.2,0-0.3-0.1c-0.1-0.1-0.1-0.2-0.1-0.3v-7.2l-5.8-10.7c-0.1-0.1-0.1-0.2,0-0.3
		C108.2,115.7,108.3,115.6,108.4,115.5z M111.5,115.5c0.1,0,0.2,0.1,0.3,0.2c0.1,0.1,0.1,0.2,0,0.4v0c-0.1,0.2-0.2,0.3-0.5,0.3
		c-0.2-0.1-0.3-0.1-0.4-0.3c-0.1-0.1-0.1-0.2-0.1-0.4c0.1-0.2,0.2-0.3,0.5-0.3C111.4,115.4,111.5,115.4,111.5,115.5z M111.9,116.9
		c0,0,0.1-0.1,0.2-0.1c0.2,0,0.3,0.1,0.4,0.2l4.4,8l5.1-9.3c0.1-0.1,0.2-0.2,0.4-0.2c0.1,0,0.2,0,0.2,0.1c0.1,0.1,0.2,0.1,0.2,0.3
		c0,0.1,0,0.2,0,0.3l-5.5,10.1c-0.1,0.1-0.2,0.2-0.4,0.2h0c-0.2,0-0.3-0.1-0.4-0.2l-4.8-8.7c-0.1-0.1-0.1-0.2,0-0.3
		S111.8,116.9,111.9,116.9z M116.5,121.4c-0.1,0-0.2,0-0.2-0.1c-0.1-0.1-0.2-0.1-0.2-0.3c0-0.1,0-0.2,0-0.3l2.1-3.8
		c0.1-0.2,0.2-0.2,0.4-0.2c0,0,0.1,0,0.2,0.1c0.1,0.1,0.2,0.1,0.2,0.3c0,0.1,0,0.2,0,0.4l-2.1,3.8
		C116.8,121.3,116.7,121.4,116.5,121.4z M117.2,134c0,0.3-0.1,0.4-0.4,0.4c-0.1,0-0.2,0-0.3-0.1c-0.1-0.1-0.1-0.2-0.1-0.3v-5.5
		c0-0.1,0-0.2,0.1-0.3c0.1-0.1,0.2-0.1,0.3-0.1c0.3,0,0.4,0.1,0.4,0.4V134z"/>
	<path fill="#FFFFFF" d="M130.4,125.2v-9.1c0-0.1,0-0.2,0.1-0.3c0.1-0.1,0.2-0.1,0.3-0.1c0.1,0,0.2,0,0.3,0.1
		c0.1,0.1,0.1,0.2,0.1,0.3v9.1c0,1.1,0.2,2.2,0.5,3.2c0.3,1,0.8,1.9,1.4,2.7c0.6,0.8,1.2,1.4,2,1.9c0.8,0.5,1.6,0.8,2.5,0.8v-1.9
		c0-0.1,0-0.2,0.1-0.3c0.1-0.1,0.2-0.1,0.3-0.1c0.8,0,1.5-0.2,2-0.6s1-0.9,1.4-1.5c0.4-0.6,0.6-1.3,0.8-2c0.2-0.7,0.2-1.4,0.2-2.1
		v-7.6c0-0.1,0-0.3,0.1-0.3c0.1-0.1,0.2-0.1,0.3-0.1c0.3,0,0.4,0.2,0.4,0.5v7.6c0,0.8-0.1,1.5-0.3,2.3c-0.2,0.8-0.5,1.5-0.9,2.2
		s-0.9,1.2-1.5,1.7s-1.3,0.7-2.2,0.8v2c0,0.1,0,0.2-0.1,0.3c-0.1,0.1-0.2,0.1-0.3,0.1c-1.2,0-2.3-0.3-3.3-0.9
		c-1-0.6-1.8-1.3-2.4-2.2c-0.7-0.9-1.2-1.9-1.5-3.1C130.6,127.4,130.4,126.3,130.4,125.2z M132.8,118.3c0-0.1,0-0.2,0.1-0.3
		c0.1-0.1,0.2-0.1,0.3-0.1c0.1,0,0.2,0,0.3,0.1c0.1,0.1,0.1,0.2,0.1,0.3v7c0,0.5,0.1,1.1,0.2,1.6s0.3,1.1,0.5,1.5
		c0.2,0.5,0.5,1,0.8,1.4c0.3,0.4,0.7,0.8,1.2,1.1c0.1,0.1,0.2,0.2,0.2,0.3c0,0.1,0,0.2-0.1,0.3c-0.1,0.1-0.2,0.2-0.4,0.2
		c-0.1,0-0.2,0-0.2-0.1c-1-0.6-1.7-1.5-2.3-2.6c-0.6-1.1-0.8-2.4-0.8-3.7V118.3z M140.1,133.7c0.8-0.3,1.5-0.8,2.1-1.3
		c0.6-0.6,1.1-1.3,1.5-2c0.4-0.8,0.7-1.6,0.9-2.4c0.2-0.9,0.3-1.7,0.3-2.5v-9.3c0-0.1,0-0.2,0.1-0.3c0.1-0.1,0.2-0.1,0.3-0.1
		s0.2,0,0.3,0.1c0.1,0.1,0.1,0.2,0.1,0.3v9.3c0,0.9-0.1,1.8-0.4,2.7c-0.2,0.9-0.6,1.8-1,2.7s-1,1.6-1.7,2.2
		c-0.7,0.7-1.5,1.1-2.4,1.4c-0.3,0.1-0.5,0-0.6-0.2c-0.1-0.1-0.1-0.2,0-0.4C139.9,133.8,140,133.7,140.1,133.7z M143.2,115.7
		c0.1,0.1,0.2,0.1,0.3,0.3c0.1,0.1,0.1,0.2,0,0.4v0c-0.1,0.2-0.2,0.3-0.5,0.3c-0.2-0.1-0.3-0.1-0.4-0.3s-0.1-0.3-0.1-0.4v0
		c0.1-0.2,0.2-0.3,0.5-0.3C143.1,115.7,143.1,115.7,143.2,115.7C143.1,115.7,143.2,115.7,143.2,115.7z"/>
	<path fill="#FFFFFF" d="M150,118.3c0-0.1,0-0.2,0.1-0.3c0.1-0.1,0.2-0.1,0.3-0.1h3.5c0.5,0,1,0.1,1.4,0.2c0.4,0.1,0.8,0.3,1.2,0.6
		s0.6,0.6,0.8,1c0.2,0.4,0.3,0.9,0.3,1.4c0,0.5-0.1,1-0.3,1.4c-0.2,0.4-0.5,0.7-0.8,1c-0.3,0.3-0.7,0.5-1.2,0.6
		c-0.4,0.1-0.9,0.2-1.4,0.2h-1.1c-0.3,0-0.4-0.1-0.4-0.4v-1.9c0-0.3,0.1-0.4,0.4-0.4c0.1,0,0.2,0,0.3,0.1c0.1,0.1,0.1,0.2,0.1,0.3
		v1.4h0.7c0.7,0,1.4-0.2,1.9-0.6c0.5-0.4,0.8-1,0.8-1.8c0-0.4-0.1-0.8-0.2-1c-0.2-0.3-0.4-0.5-0.6-0.7c-0.2-0.2-0.5-0.3-0.9-0.4
		c-0.3-0.1-0.7-0.1-1-0.1h-3.1V134c0,0.1,0,0.2-0.1,0.3c-0.1,0.1-0.2,0.1-0.3,0.1c-0.1,0-0.3,0-0.3-0.1c-0.1-0.1-0.1-0.2-0.1-0.3
		V118.3z M152.8,132.4c-0.3,0-0.4-0.1-0.4-0.4v-5.8c0-0.3,0.1-0.4,0.4-0.4h2.1c0.2,0,0.6-0.1,1-0.2s0.9-0.4,1.4-0.7
		c1.1-0.9,1.7-2.2,1.7-4c0-0.6-0.1-1.2-0.3-1.8c-0.2-0.5-0.4-1-0.8-1.4c-0.3-0.4-0.8-0.7-1.3-0.9c-0.5-0.2-1.1-0.3-1.8-0.3h-2.1
		c-0.1,0-0.2,0-0.3-0.1c-0.1-0.1-0.1-0.2-0.1-0.3c0-0.1,0-0.2,0.1-0.3c0.1-0.1,0.2-0.1,0.3-0.1h2.1c0.8,0,1.5,0.1,2.1,0.4
		c0.6,0.3,1.2,0.6,1.6,1.1c0.4,0.5,0.7,1,1,1.7c0.2,0.7,0.3,1.3,0.3,2.1c0,0.9-0.2,1.8-0.5,2.6c-0.3,0.8-0.8,1.5-1.5,2.1
		c-0.5,0.4-1.1,0.7-1.6,0.9c-0.6,0.2-1,0.3-1.4,0.3h-1.7v5.4c0,0.1,0,0.2-0.1,0.3C153.1,132.4,153,132.4,152.8,132.4z M152.7,120.8
		c-0.1,0-0.2-0.1-0.3-0.2c-0.1-0.1-0.1-0.2,0-0.4v0c0.1-0.2,0.3-0.3,0.5-0.3c0.1,0,0.1,0,0.1,0c0.1,0,0.2,0.1,0.3,0.2
		c0.1,0.1,0.1,0.2,0,0.4h0c-0.1,0.2-0.2,0.3-0.5,0.3L152.7,120.8z"/>
</g>
<g id="XMLID_719_">
	<g id="XMLID_716_">
		<path id="XMLID_718_" fill="#FFFFFF" d="M101.1,103.9c0-0.3,0-0.7,0.1-1H35.3c-0.6,0-1,0.4-1,1s0.4,1,1,1h65.8
			C101.1,104.6,101.1,104.3,101.1,103.9z"/>
		<path id="XMLID_720_" fill="#FFFFFF" d="M191.8,102.9H126c0,0.3,0.1,0.7,0.1,1c0,0.3,0,0.7-0.1,1h65.8c0.6,0,1-0.4,1-1
			S192.4,102.9,191.8,102.9z"/>
	</g>
	<circle id="XMLID_717_" fill="#FFFFFF" cx="113.6" cy="103.9" r="1.7"/>
</g>
</svg>
